<svg width="273" height="850" viewBox="0 0 273 850" fill="none" xmlns="http://www.w3.org/2000/svg">
<path opacity="0.5" d="M1.10263 137.019L0 137.386L0 712.649L410.89 849.301L413 850L413 0L1.10263 137.019ZM361.307 20.5908V84.9088L319.62 96.4652V34.4561L361.307 20.5908ZM199.481 247.231L168.738 252.346V198.614L199.481 191.794V247.231ZM202.742 191.083L235.82 183.742V241.193L202.742 246.699V191.083ZM165.513 252.879L136.868 257.616V205.647L165.513 199.301V252.879ZM133.643 258.184L106.92 262.624V212.325L133.643 206.405V258.184ZM103.695 263.169L78.7254 267.313V218.577L103.695 212.977V263.169ZM75.5005 267.905L52.1674 271.741V224.474L75.5479 219.288L75.5005 267.905ZM75.5005 271.161V319.708L52.1674 322.301V274.998L75.5005 271.161ZM78.7254 270.628L103.695 266.472L103.695 316.582L78.7254 319.352V270.628ZM106.92 265.892L133.643 261.44V313.254L106.92 316.227L106.92 265.892ZM136.868 260.907L165.513 256.171V309.726L136.868 312.899V260.907ZM168.738 255.603L199.481 250.488V305.961L168.738 309.371V255.603ZM202.742 249.955L235.82 244.461V301.935L202.742 305.605V249.955ZM239.045 243.916L274.697 237.996V297.625L239.045 301.58V243.916ZM239.045 240.66V183.032L274.661 175.087V234.728L239.045 240.66ZM277.922 174.353L316.431 165.815V227.789L277.922 234.195V174.353ZM277.922 171.061V111.313L316.431 100.657V162.571L277.922 171.061ZM274.697 171.771L239.045 179.681L239.045 122.088L274.697 112.201V171.771ZM235.82 180.391L202.742 187.732L202.742 132.153L235.82 122.988L235.82 180.391ZM199.517 188.443L168.773 195.263L168.773 141.578L199.517 133.053L199.517 188.443ZM165.549 195.974L136.904 202.332L136.904 150.411L165.549 142.466L165.549 195.974ZM133.679 203.078L106.955 208.998V158.735L133.643 151.406L133.679 203.078ZM103.73 209.72L78.7254 215.286V166.585L103.695 159.694L103.73 209.72ZM75.5361 215.972L52.1674 221.182L52.1674 173.903L75.5479 167.414L75.5361 215.972ZM48.9425 221.893L27.0322 226.747L27.0322 180.924L48.9425 174.85L48.9425 221.893ZM48.9425 225.196V272.274L27.0322 275.921L27.0322 230.051L48.9425 225.196ZM48.9425 275.542V322.656L27.0322 325.083L27.0322 279.177L48.9425 275.542ZM75.5361 322.905V371.557L52.1674 372.824L52.1674 325.462L75.5361 322.905ZM78.761 322.549L103.73 319.779V369.983L78.7254 371.368L78.761 322.549ZM106.955 319.423L133.679 316.463V368.325L106.955 369.805V319.423ZM136.904 316.108L165.549 312.923V366.561L136.868 368.088L136.904 316.108ZM168.773 312.556L199.517 309.146V364.678L168.773 366.383V312.556ZM202.742 308.885L235.82 305.215V362.665L202.742 364.536V308.885ZM239.045 304.859L274.697 300.905V360.51L239.045 362.488V304.859ZM277.922 300.549L316.431 296.275V358.201L277.922 360.333V300.549ZM277.922 297.305V237.498L316.431 231.093V292.995L277.922 297.305ZM319.656 230.56L361.342 223.621V288.01L319.656 292.64V230.56ZM319.656 227.304V165.2L361.342 155.964V220.318L319.656 227.304ZM319.656 161.908V99.8516L361.342 88.2952V152.59L319.656 161.908ZM316.431 35.5809V97.3532L277.922 108.01V48.3925L316.431 35.5809ZM274.697 49.4581V108.922L239.045 118.808V61.275L274.697 49.4581ZM235.82 62.388V119.708L202.742 128.908V73.3879L235.82 62.388ZM199.481 74.4417V129.761L168.738 138.286V84.6483L199.481 74.4417ZM165.513 85.7495V139.186L136.868 147.119V95.2457L165.513 85.7495ZM133.643 96.406V148.019L106.92 155.431V105.227L133.643 96.406ZM103.695 106.364V156.319L78.7254 163.246V114.593L103.695 106.364ZM75.5005 115.742V164.134L52.1674 170.611V123.438L75.5005 115.742ZM48.907 124.598V171.535L26.9966 177.609V131.821L48.907 124.598ZM3.2249 139.707L23.7717 132.875V178.473L3.2249 184.168L3.2249 139.707ZM3.2249 187.507L23.7717 181.812L23.7717 227.469L3.2249 232.028L3.2249 187.507ZM3.2249 235.32L23.7717 230.737L23.7717 276.454L3.2249 279.876L3.2249 235.32ZM3.2249 283.132L23.7717 279.722L23.7717 325.462L3.2249 327.724L3.2249 283.132ZM48.907 325.888L48.907 373.026L26.9966 374.21L26.9966 328.28L48.907 325.888ZM3.2249 330.956L23.7717 328.683L23.7717 374.423L3.2249 375.607L3.2249 330.956ZM3.2249 423.396L3.2249 378.745L23.7717 377.561L23.7717 423.396H3.2249ZM26.9966 423.396L26.9966 377.466L48.907 376.282V423.396H26.9966ZM52.12 423.396V376.033L75.5005 374.743V423.396H52.12ZM78.7254 423.396V374.589L103.695 373.215V423.396H78.7254ZM106.92 423.396V373.026L133.643 371.546V423.396H106.92ZM136.868 423.396V371.368L165.513 369.781V423.396H136.868ZM168.738 423.396V369.604L199.481 367.899V423.396H168.738ZM202.706 423.396V367.745L235.785 365.91V423.396H202.706ZM239.01 423.396V365.72L274.661 363.743L274.661 423.396H239.01ZM277.886 423.396L277.886 363.553L316.395 361.422L316.395 423.396H277.886ZM319.62 423.396L319.62 361.244L361.307 358.876L361.307 423.396H319.62ZM3.2249 519.044L3.2249 474.44L23.7717 475.624V521.329L3.2249 519.044ZM26.9966 475.767L48.907 476.951V524.112L26.9966 521.743V475.767ZM274.661 674.878L239.01 666.968L239.01 609.34L274.661 615.26V674.878ZM277.886 615.805L316.395 622.211V684.125L277.886 675.588V615.805ZM78.7017 582.651L103.671 586.807V636.964L78.7254 631.423L78.7017 582.651ZM75.5005 630.712L52.1674 625.526V578.259L75.5479 582.154L75.5005 630.712ZM106.92 587.376L133.643 591.816L133.643 643.607L106.92 637.686V587.376ZM136.868 592.361L165.513 597.097L165.513 650.664L136.868 644.317L136.868 592.361ZM168.738 597.653L199.481 602.769L199.481 658.183L168.738 651.362L168.738 597.653ZM202.742 603.301L235.82 608.807L235.82 666.258L202.742 658.917L202.742 603.301ZM239.01 606.084V548.432L274.661 552.387V612.004L239.01 606.084ZM235.785 605.551L202.742 600.045V544.395L235.785 548.065V605.551ZM199.481 599.512L168.738 594.397V540.641L199.481 544.051V599.512ZM165.513 593.864L136.868 589.128V537.136L165.513 540.31V593.864ZM133.643 588.56L106.92 584.108V533.785L133.643 536.746V588.56ZM103.695 583.587L78.7254 579.431V530.659L103.695 533.418V583.587ZM75.5005 578.851L52.1674 575.002L52.1674 527.711L75.5005 530.304V578.851ZM48.907 574.434L26.9966 570.787L26.9966 524.881L48.907 527.344L48.907 574.434ZM48.907 577.69V624.804L26.9966 619.949L26.9966 574.114L48.907 577.69ZM48.907 628.072V675.15L26.9966 669.076L26.9966 623.253L48.907 628.072ZM52.1674 628.818L75.5479 634.004V682.55L52.1674 676.05L52.1674 628.818ZM78.7728 634.738L103.742 640.28V690.365L78.7728 683.439V634.738ZM106.967 641.002L133.691 646.922V698.665L106.967 691.253V641.002ZM136.916 647.633L165.56 653.991V707.475L136.916 699.542V647.633ZM168.785 654.737L199.529 661.557V716.9L168.785 708.375V654.737ZM202.742 662.22L235.82 669.549V726.953L202.742 717.788V662.22ZM239.045 670.272L274.697 678.169V737.739L239.045 727.853V670.272ZM277.922 678.892L316.431 687.429V749.355L277.922 738.699V678.892ZM319.656 688.139L361.342 697.387V761.752L319.656 750.196V688.139ZM319.656 684.848V622.756L361.342 629.682V694.095L319.656 684.848ZM319.656 619.488V557.36L361.342 561.99V626.426L319.656 619.488ZM316.431 618.955L277.922 612.549V552.742L316.431 557.005V618.955ZM277.922 549.498V489.667L316.431 491.81V553.772L277.922 549.498ZM274.697 549.143L239.045 545.188V487.512L274.697 489.49V549.143ZM235.82 544.833L202.742 541.162V485.511L235.82 487.347V544.833ZM199.517 540.807L168.738 537.409V483.629L199.481 485.31L199.517 540.807ZM165.549 537.042L136.868 533.856V481.841L165.513 483.427L165.549 537.042ZM133.679 533.489L106.955 530.529L106.955 480.183L133.679 481.663V533.489ZM103.73 530.174L78.761 527.403L78.761 478.62L103.73 480.005L103.73 530.174ZM75.5361 527.048L52.1674 524.467V477.104L75.5479 478.407L75.5361 527.048ZM3.21304 522.312L23.7599 524.585L23.7599 570.29L3.21304 566.868L3.21304 522.312ZM3.21304 570.148L23.7599 573.57L23.7599 619.239L3.21304 614.68L3.21304 570.148ZM3.2249 617.925L23.7717 622.483L23.7717 668.188L3.2249 662.493L3.2249 617.925ZM3.2249 710.281L3.2249 665.82L23.7717 671.515L23.7717 717.137L3.2249 710.281ZM26.9966 718.191L26.9966 672.391L48.907 678.465V725.473L26.9966 718.191ZM52.1674 726.562V679.389L75.5479 685.866L75.5479 734.341L52.1674 726.562ZM78.7254 735.407L78.7254 686.754L103.695 693.704L103.695 743.719L78.7254 735.407ZM106.92 744.796L106.92 694.569L133.643 701.993V753.677L106.92 744.796ZM136.868 754.754V702.881L165.513 710.814V764.286L136.868 754.754ZM168.738 765.411V711.773L199.481 720.298V775.582L168.738 765.411ZM202.742 776.659V721.127L235.82 730.304V787.659L202.742 776.659ZM239.01 788.725V731.192L274.661 741.067V800.589L239.01 788.725ZM277.886 801.667V741.967L316.395 752.623V814.478L277.886 801.667ZM319.62 815.544V753.535L361.307 765.091V829.409L319.62 815.544ZM409.787 845.536L364.532 830.487V765.932L409.787 778.53V845.536ZM409.787 775.191L364.532 762.652V698.097L409.787 708.138V775.191ZM409.787 704.846L364.532 694.805V630.227L409.787 637.746V704.846ZM409.787 634.49L364.532 626.959V562.345L409.787 567.365V634.49ZM409.787 496.985V564.121L364.532 559.112V494.475L409.787 496.985ZM361.307 558.722L319.62 554.104V491.964L361.307 494.273V558.722ZM409.787 426.581V493.764L364.532 491.23V426.581H409.787ZM361.307 426.581V491.076L319.62 488.767V426.604L361.307 426.581ZM316.395 426.581V488.59L277.886 486.494V426.652L316.395 426.581ZM274.661 426.581V486.269L239.01 484.292V426.604L274.661 426.581ZM235.785 426.581V484.126L202.706 482.291V426.64L235.785 426.581ZM199.481 426.581V482.101L168.738 480.396V426.604L199.481 426.581ZM165.513 426.581V480.219L136.868 478.632V426.604L165.513 426.581ZM133.643 426.581V478.454L106.92 477.022V426.652L133.643 426.581ZM103.695 426.581V476.797L78.7254 475.411V426.604L103.695 426.581ZM75.5005 426.581V475.234L52.1674 473.931L52.1674 426.569L75.5005 426.581ZM48.907 426.581L48.907 473.754L26.9966 472.57V426.628L48.907 426.581ZM23.7717 426.581V472.356L3.2249 471.172L3.2249 426.557L23.7717 426.581ZM409.787 423.372H364.532L364.532 358.722L409.787 356.248L409.787 423.372ZM319.62 357.988V295.861L361.307 291.243V355.703L319.62 357.988ZM409.787 352.991L364.532 355.502V290.876L409.787 285.855V352.991ZM409.787 282.611L364.532 287.631V223.041L409.787 215.51V282.611ZM409.787 212.231L364.532 219.761V155.195L409.787 145.166V212.231ZM409.787 141.838L364.532 151.879V87.3361L409.787 74.7851V141.838ZM364.532 83.9852V19.4896L409.787 4.44019V71.4697L364.532 83.9852Z" fill="url(#paint0_linear_654_823)"/>
<defs>
<linearGradient id="paint0_linear_654_823" x1="0" y1="425" x2="413" y2="425" gradientUnits="userSpaceOnUse">
<stop stop-color="#EC1D24"/>
<stop offset="1" stop-color="#0043D2"/>
</linearGradient>
</defs>
</svg>
