<svg xmlns="http://www.w3.org/2000/svg" width="559" height="754" viewBox="0 0 559 754" fill="none">
  <path opacity="0.5" d="M1.50577 121.544L0 121.87L0 632.162L561.118 753.38L564 754V0L1.50577 121.544ZM493.407 18.2653V75.3192L436.479 85.5703V30.5646L493.407 18.2653ZM272.415 219.309L230.431 223.846V176.182L272.415 170.132V219.309ZM276.867 169.502L322.041 162.99V213.952L276.867 218.836V169.502ZM226.027 224.319L186.91 228.52V182.421L226.027 176.792V224.319ZM182.506 229.024L146.011 232.963V188.345L182.506 183.093V229.024ZM141.607 233.446L107.509 237.122V193.891L141.607 188.923V233.446ZM103.105 237.648L71.2407 241.051V199.122L103.17 194.521L103.105 237.648ZM103.105 240.536V283.599L71.2407 285.9V243.939L103.105 240.536ZM107.509 240.063L141.607 236.377V280.827L107.509 283.284V240.063ZM146.011 235.862L182.506 231.913V277.875L146.011 280.512V235.862ZM186.91 231.44L226.027 227.239V274.745L186.91 277.56V231.44ZM230.431 226.735L272.415 222.197V271.405L230.431 274.43V226.735ZM276.867 221.725L322.041 216.851V267.834L276.867 271.09V221.725ZM326.445 216.368L375.131 211.116V264.011L326.445 267.519V216.368ZM326.445 213.479V162.36L375.083 155.312V208.217L326.445 213.479ZM379.535 154.661L432.124 147.088V202.062L379.535 207.745V154.661ZM379.535 151.741V98.7415L432.124 89.2885V144.21L379.535 151.741ZM375.131 152.371L326.445 159.388V108.299L375.131 99.5292V152.371ZM322.041 160.018L276.867 166.53V117.227L322.041 109.098V160.018ZM272.463 167.16L230.48 173.21V125.588L272.463 118.026V167.16ZM226.076 173.84L186.958 179.48V133.423L226.076 126.376V173.84ZM182.554 180.142L146.06 185.394V140.807L182.506 134.306L182.554 180.142ZM141.656 186.034L107.509 190.971L107.509 147.771L141.607 141.658L141.656 186.034ZM103.153 191.58L71.2407 196.202L71.2407 154.262L103.17 148.506L103.153 191.58ZM66.8368 196.832L36.9157 201.138V160.49L66.8368 155.102L66.8368 196.832ZM66.8368 199.762V241.523L36.9157 244.758L36.9157 204.068L66.8368 199.762ZM66.8368 244.422V286.215L36.9157 288.368V247.647L66.8368 244.422ZM103.153 286.435V329.593L71.2407 330.717V288.704L103.153 286.435ZM107.557 286.12L141.656 283.662V328.196L107.509 329.425L107.557 286.12ZM146.06 283.347L182.554 280.722V326.726L146.06 328.039V283.347ZM186.958 280.406L226.076 277.581V325.161L186.91 326.516L186.958 280.406ZM230.48 277.255L272.463 274.231L272.463 323.491L230.48 325.003V277.255ZM276.867 273.999L322.041 270.743L322.041 321.705L276.867 323.365L276.867 273.999ZM326.445 270.428L375.131 266.92L375.131 319.794L326.445 321.548L326.445 270.428ZM379.535 266.605L432.124 262.813L432.124 317.746L379.535 319.636L379.535 266.605ZM379.535 263.727V210.675L432.124 204.993V259.904L379.535 263.727ZM436.528 204.52L493.455 198.365V255.482L436.528 259.589V204.52ZM436.528 201.632V146.542L493.455 138.349V195.435L436.528 201.632ZM436.528 143.622V88.5743L493.455 78.3231V135.356L436.528 143.622ZM432.124 31.5624V86.358L379.535 95.811V42.927L432.124 31.5624ZM375.131 43.8723V96.6198L326.445 105.39V54.3546L375.131 43.8723ZM322.041 55.3419V106.188L276.867 114.349V65.0994L322.041 55.3419ZM272.415 66.0342V115.106L230.431 122.668V75.0881L272.415 66.0342ZM226.027 76.0648V123.466L186.91 130.503V84.4885L226.027 76.0648ZM182.506 85.5178V131.302L146.011 137.877V93.3428L182.506 85.5178ZM141.607 94.3511V138.665L107.509 144.809V101.651L141.607 94.3511ZM103.105 102.67V145.597L71.2407 151.342V109.497L103.105 102.67ZM66.7882 110.526V152.161L36.8671 157.549V116.933L66.7882 110.526ZM4.40397 123.928L32.4631 117.868V158.316L4.40397 163.368L4.40397 123.928ZM4.40397 166.33L32.4631 161.278V201.779L4.40397 205.823L4.40397 166.33ZM4.40397 208.742L32.4631 204.678L32.4631 245.231L4.40397 248.266L4.40397 208.742ZM4.40397 251.155L32.4631 248.13V288.704L4.40397 290.71L4.40397 251.155ZM66.7882 289.082V330.896L36.8671 331.946V291.204L66.7882 289.082ZM4.40397 293.578L32.4631 291.561V332.135L4.40397 333.186L4.40397 293.578ZM4.40397 375.577L4.40397 335.969L32.4631 334.919L32.4631 375.577H4.40397ZM36.8671 375.577L36.8671 334.835L66.7882 333.784V375.577H36.8671ZM71.176 375.577V333.564L103.105 332.419V375.577H71.176ZM107.509 375.577V332.282L141.607 331.064V375.577H107.509ZM146.011 375.577V330.896L182.506 329.583V375.577H146.011ZM186.91 375.577V329.425L226.027 328.018V375.577H186.91ZM230.431 375.577V327.86L272.415 326.348V375.577H230.431ZM276.819 375.577V326.211L321.992 324.583V375.577H276.819ZM326.396 375.577V324.415L375.083 322.661V375.577H326.396ZM379.486 375.577V322.493L432.075 320.603V375.577H379.486ZM436.479 375.577V320.445L493.407 318.344V375.577L436.479 375.577ZM4.40397 460.422L4.40397 420.857L32.4631 421.907V462.45L4.40397 460.422ZM36.8671 422.033L66.7882 423.083V464.918L36.8671 462.817V422.033ZM375.083 598.656L326.396 591.64V540.521L375.083 545.772V598.656ZM379.486 546.255L432.075 551.938V606.859L379.486 599.286V546.255ZM107.476 516.846L141.575 520.533L141.575 565.025L107.509 560.109L107.476 516.846ZM103.105 559.479L71.2407 554.879V512.949L103.17 516.405L103.105 559.479ZM146.011 521.037L182.506 524.976V570.917L146.011 565.665L146.011 521.037ZM186.91 525.459L226.027 529.66V577.177L186.91 571.547V525.459ZM230.431 530.154L272.415 534.691V583.847L230.431 577.797V530.154ZM276.867 535.164L322.041 540.048V591.01L276.867 584.498V535.164ZM326.396 537.632V486.492L375.083 490V542.884L326.396 537.632ZM321.992 537.16L276.867 532.275V482.91L321.992 486.166V537.16ZM272.415 531.803L230.431 527.265L230.431 479.58L272.415 482.605V531.803ZM226.027 526.793L186.91 522.591L186.91 476.471L226.027 479.286L226.027 526.793ZM182.506 522.087L146.011 518.138V473.499L182.506 476.125L182.506 522.087ZM141.607 517.676L107.509 513.989V470.726L141.607 473.173V517.676ZM103.105 513.475L71.2407 510.061V468.111L103.105 470.411V513.475ZM66.7882 509.557L36.8671 506.322V465.601L66.7882 467.785V509.557ZM66.7882 512.445V554.238L36.8671 549.932V509.273L66.7882 512.445ZM66.7882 557.137V598.898L36.8671 593.51L36.8671 552.862L66.7882 557.137ZM71.2407 557.798L103.17 562.399V605.462L71.2407 599.696V557.798ZM107.574 563.05L141.672 567.966V612.395L107.574 606.25V563.05ZM146.076 568.606L182.571 573.858V619.757L146.076 613.182V568.606ZM186.975 574.488L226.092 580.128V627.572L186.975 620.535V574.488ZM230.496 580.79L272.48 586.84V635.932L230.496 628.37V580.79ZM276.867 587.428L322.041 593.93V644.85L276.867 636.72V587.428ZM326.445 594.57L375.131 601.576V654.418L326.445 645.648V594.57ZM379.535 602.217L432.124 609.79V664.722L379.535 655.269V602.217ZM436.528 610.42L493.455 618.623V675.719L436.528 665.468V610.42ZM436.528 607.5V552.421L493.455 558.565V615.703L436.528 607.5ZM436.528 549.522V494.411L493.455 498.518V555.677L436.528 549.522ZM432.124 549.049L379.535 543.367V490.315L432.124 494.096V549.049ZM379.535 487.437V434.364L432.124 436.265V491.229L379.535 487.437ZM375.131 487.122L326.445 483.614V432.452L375.131 434.206V487.122ZM322.041 483.299L276.867 480.043V430.677L322.041 432.305V483.299ZM272.463 479.727L230.431 476.713V429.007L272.415 430.499L272.463 479.727ZM226.076 476.387L186.91 473.562V427.421L226.027 428.829L226.076 476.387ZM182.554 473.236L146.06 470.611V425.951L182.554 427.264V473.236ZM141.656 470.296L107.557 467.838V424.564L141.656 425.793V470.296ZM103.153 467.523L71.2407 465.233V423.22L103.17 424.375L103.153 467.523ZM4.38778 463.321L32.4469 465.338V505.881L4.38778 502.845L4.38778 463.321ZM4.38778 505.755L32.4469 508.79V549.301L4.38778 545.258L4.38778 505.755ZM4.40397 548.135L32.4631 552.179L32.4631 592.722L4.40397 587.67L4.40397 548.135ZM4.40397 630.061L4.40397 590.621L32.4631 595.673V636.143L4.40397 630.061ZM36.8671 637.077V596.451L66.7882 601.839L66.7882 643.537L36.8671 637.077ZM71.2407 644.503L71.2407 602.658L103.17 608.403L103.17 651.404L71.2407 644.503ZM107.509 652.349L107.509 609.191L141.607 615.357V659.722L107.509 652.349ZM146.011 660.678V616.123L182.506 622.709V668.556L146.011 660.678ZM186.91 669.511V623.497L226.027 630.534V677.967L186.91 669.511ZM230.431 678.964V631.385L272.415 638.947V687.987L230.431 678.964ZM276.867 688.943V639.682L322.041 647.822V698.7L276.867 688.943ZM326.396 699.645V648.61L375.083 657.37V710.17L326.396 699.645ZM379.486 711.126V658.168L432.075 667.621V722.49L379.486 711.126ZM436.479 723.435V668.43L493.407 678.681V735.735L436.479 723.435ZM559.612 750.04L497.811 736.691V679.427L559.612 690.602V750.04ZM559.612 687.64L497.811 676.517V619.253L559.612 628.16V687.64ZM559.612 625.24L497.811 616.333V559.048L559.612 565.718V625.24ZM559.612 562.83L497.811 556.149V498.833L559.612 503.286V562.83ZM559.612 440.855V500.408L497.811 495.966V438.628L559.612 440.855ZM493.407 495.619L436.479 491.523V436.401L493.407 438.45V495.619ZM559.612 378.402V437.998L497.811 435.75V378.402H559.612ZM493.407 378.402V435.614L436.479 433.565V378.423L493.407 378.402ZM432.075 378.402V433.408L379.486 431.549V378.465L432.075 378.402ZM375.083 378.402V431.349L326.396 429.595V378.423L375.083 378.402ZM321.992 378.402V429.448L276.819 427.82V378.455L321.992 378.402ZM272.415 378.402V427.652L230.431 426.14V378.423L272.415 378.402ZM226.027 378.402V425.982L186.91 424.575V378.423L226.027 378.402ZM182.506 378.402V424.417L146.011 423.146V378.465L182.506 378.402ZM141.607 378.402V422.947L107.509 421.718L107.509 378.423L141.607 378.402ZM103.105 378.402L103.105 421.56L71.2407 420.405L71.2407 378.392L103.105 378.402ZM66.7882 378.402L66.7882 420.247L36.8671 419.197V378.444L66.7882 378.402ZM32.4631 378.402V419.008L4.40397 417.958L4.40397 378.381L32.4631 378.402ZM559.612 375.556H497.811V318.208L559.612 316.013V375.556ZM436.479 317.557L436.479 262.446L493.407 258.35L493.407 315.529L436.479 317.557ZM559.612 313.124L497.811 315.351L497.811 258.024L559.612 253.571V313.124ZM559.612 250.693L497.811 255.146V197.851L559.612 191.171V250.693ZM559.612 188.261L497.811 194.941V137.667L559.612 128.77V188.261ZM559.612 125.819L497.811 134.726V77.4723L559.612 66.3388V125.819ZM497.811 74.4999V17.2885L559.612 3.93872V63.3979L497.811 74.4999Z" fill="url(#paint0_linear_654_991)" fill-opacity="0.5"/>
  <defs>
    <linearGradient id="paint0_linear_654_991" x1="0" y1="377" x2="564" y2="377" gradientUnits="userSpaceOnUse">
      <stop stop-color="#EC1D24"/>
      <stop offset="1" stop-color="#0043D2"/>
    </linearGradient>
  </defs>
</svg>