<svg width="452" height="1028" viewBox="0 0 452 1028" fill="none" xmlns="http://www.w3.org/2000/svg">
<path d="M1.33223 165.713L0 166.157L0 861.886L496.45 1027.16L499 1028L499 0L1.33223 165.713ZM436.543 24.9028V102.69L386.176 116.666V41.6716L436.543 24.9028ZM241.02 299.005L203.875 305.191V240.206L241.02 231.958V299.005ZM244.959 231.099L284.926 222.22V291.701L244.959 298.36V231.099ZM199.978 305.835L165.369 311.563V248.712L199.978 241.037V305.835ZM161.472 312.251L129.184 317.621V256.789L161.472 249.629V312.251ZM125.287 318.279L95.1186 323.292V264.35L125.287 257.576V318.279ZM91.2221 324.008L63.0304 328.647L63.0304 271.481L91.2794 265.209L91.2221 324.008ZM91.2221 327.946V386.658L63.0304 389.794L63.0304 332.585L91.2221 327.946ZM95.1186 327.301L125.287 322.275V382.878L95.1186 386.229V327.301ZM129.184 321.573L161.472 316.189L161.472 378.854L129.184 382.448L129.184 321.573ZM165.369 315.544L199.978 309.816L199.978 374.586L165.369 378.424L165.369 315.544ZM203.875 309.129L241.02 302.943L241.02 370.032L203.875 374.157L203.875 309.129ZM244.959 302.298L284.926 295.654V365.164L244.959 369.603L244.959 302.298ZM288.822 294.995L331.898 287.835V359.951L288.822 364.734V294.995ZM288.822 291.057V221.361L331.855 211.752V283.883L288.822 291.057ZM335.794 210.864L382.322 200.539V275.491L335.794 283.238V210.864ZM335.794 206.883V134.624L382.322 121.736V196.616L335.794 206.883ZM331.898 207.742L288.822 217.308V147.655L331.898 135.698V207.742ZM284.926 218.167L244.959 227.046V159.827L284.926 148.743V218.167ZM241.063 227.905L203.918 236.153V171.226L241.063 160.915V227.905ZM200.021 237.013L165.412 244.703V181.909L200.021 172.3V237.013ZM161.515 245.605L129.227 252.765V191.976L161.472 183.112L161.515 245.605ZM125.33 253.638L95.1186 260.369L95.1186 201.47L125.287 193.136L125.33 253.638ZM91.2651 261.199L63.0304 267.5V210.32L91.2794 202.473L91.2651 261.199ZM59.1339 268.359L32.6612 274.231L32.6612 218.812L59.1339 211.466V268.359ZM59.1339 272.355L59.1339 329.292L32.6612 333.702V278.226L59.1339 272.355ZM59.1339 333.244L59.1339 390.224L32.6612 393.159L32.6612 337.64L59.1339 333.244ZM91.2651 390.525L91.2651 449.366L63.0304 450.898V393.618L91.2651 390.525ZM95.1615 390.095L125.33 386.744V447.461L95.1186 449.137L95.1615 390.095ZM129.227 386.314L161.515 382.734V445.457L129.227 447.247V386.314ZM165.412 382.305L200.021 378.453V443.323L165.369 445.17L165.412 382.305ZM203.918 378.009L241.063 373.885V441.046L203.918 443.108V378.009ZM244.959 373.57L284.926 369.13V438.612L244.959 440.874V373.57ZM288.822 368.701L331.898 363.918V436.005L288.822 438.397V368.701ZM335.794 363.488L382.322 358.319V433.213L335.794 435.791V363.488ZM335.794 359.564V287.233L382.322 279.486V354.352L335.794 359.564ZM386.219 278.842L436.586 270.45V348.323L386.219 353.922V278.842ZM386.219 274.904V199.795L436.586 188.625V266.455L386.219 274.904ZM386.219 195.814V120.762L436.586 106.785V184.544L386.219 195.814ZM382.322 43.032V117.74L335.794 130.628V58.5264L382.322 43.032ZM331.898 59.8153V131.731L288.822 143.688V74.1068L331.898 59.8153ZM284.926 75.4529V144.777L244.959 155.903V88.7562L284.926 75.4529ZM241.02 90.0308V156.934L203.875 167.245V102.375L241.02 90.0308ZM199.978 103.706V168.333L165.369 177.928V115.191L199.978 103.706ZM161.472 116.595V179.016L129.184 187.981V127.263L161.472 116.595ZM125.287 128.638V189.055L95.1186 197.432V138.59L125.287 128.638ZM91.2221 139.979V198.506L63.0304 206.339L63.0304 149.288L91.2221 139.979ZM59.091 150.691L59.091 207.456L32.6182 214.802V159.426L59.091 150.691ZM3.89642 168.963L28.7218 160.701L28.7218 215.847L3.89642 222.735L3.89642 168.963ZM3.89642 226.774L28.7218 219.886L28.7218 275.104L3.89642 280.618L3.89642 226.774ZM3.89642 284.599L28.7218 279.057L28.7218 334.347L3.89642 338.485L3.89642 284.599ZM3.89642 342.423L28.7218 338.299L28.7218 393.618L3.89642 396.353L3.89642 342.423ZM59.091 394.133V451.142L32.6182 452.574V397.026L59.091 394.133ZM3.89642 400.262L28.7218 397.513L28.7218 452.832L3.89642 454.264L3.89642 400.262ZM3.89642 512.06L3.89642 458.058L28.7218 456.626L28.7218 512.06H3.89642ZM32.6182 512.06L32.6182 456.512L59.091 455.08L59.091 512.06H32.6182ZM62.9731 512.06L62.9731 454.779L91.2221 453.218V512.06H62.9731ZM95.1186 512.06V453.032L125.287 451.371V512.06H95.1186ZM129.184 512.06V451.142L161.472 449.352V512.06H129.184ZM165.369 512.06V449.137L199.978 447.218V512.06H165.369ZM203.875 512.06V447.003L241.02 444.941V512.06H203.875ZM244.916 512.06V444.755L284.883 442.535V512.06H244.916ZM288.779 512.06V442.306L331.855 439.915V512.06H288.779ZM335.751 512.06V439.686L382.279 437.108V512.06H335.751ZM386.176 512.06V436.893L436.543 434.029V512.06H386.176ZM3.89642 627.738L3.89642 573.794L28.7218 575.226L28.7218 630.502L3.89642 627.738ZM32.6182 575.398L59.091 576.83L59.091 633.867L32.6182 631.003L32.6182 575.398ZM331.855 816.205L288.779 806.639V736.943L331.855 744.103V816.205ZM335.751 744.762L382.279 752.509V827.389L335.751 817.064V744.762ZM95.0899 704.666L125.259 709.692V770.352L95.1186 763.65L95.0899 704.666ZM91.2221 762.791L63.0304 756.519L63.0304 699.353L91.2794 704.064L91.2221 762.791ZM129.184 710.379L161.472 715.749V778.386L129.184 771.226V710.379ZM165.369 716.408L199.978 722.136V786.92L165.369 779.245V716.408ZM203.875 722.809L241.02 728.995L241.02 796.014L203.875 787.765V722.809ZM244.959 729.64L284.926 736.299V805.78L244.959 796.902L244.959 729.64ZM288.779 733.005V663.28L331.855 668.063V740.165L288.779 733.005ZM284.883 732.361L244.959 725.702V658.397L284.883 662.836V732.361ZM241.02 725.057L203.875 718.871V653.858L241.02 657.982V725.057ZM199.978 718.227L165.369 712.499V649.619L199.978 653.457V718.227ZM161.472 711.811L129.184 706.427V645.566L161.472 649.146V711.811ZM125.287 705.797L95.1186 700.77L95.1186 641.786L125.287 645.122L125.287 705.797ZM91.2221 700.069L63.0304 695.415V638.22L91.2221 641.356L91.2221 700.069ZM59.091 694.727L32.6182 690.317V634.798L59.091 637.776V694.727ZM59.091 698.665L59.091 755.645L32.6182 749.774L32.6182 694.341L59.091 698.665ZM59.091 759.598V816.534L32.6182 809.188V753.769L59.091 759.598ZM63.0304 760.5L91.2794 766.772V825.485L63.0304 817.623V760.5ZM95.1759 767.66L125.344 774.362V834.936L95.1759 826.559V767.66ZM129.241 775.235L161.53 782.395L161.53 844.974L129.241 836.01L129.241 775.235ZM165.426 783.254L200.035 790.944L200.035 855.628L165.426 846.034L165.426 783.254ZM203.932 791.847L241.077 800.095V867.027L203.932 856.717L203.932 791.847ZM244.959 800.897L284.926 809.761V879.185L244.959 868.101V800.897ZM288.822 810.635L331.898 820.186V892.231L288.822 880.273V810.635ZM335.794 821.06L382.322 831.384V906.279L335.794 893.391V821.06ZM386.219 832.244L436.586 843.428V921.272L386.219 907.296V832.244ZM386.219 828.263V753.168L436.586 761.545V839.447L386.219 828.263ZM386.219 749.216V674.078L436.586 679.677V757.607L386.219 749.216ZM382.322 748.571L335.794 740.824V668.493L382.322 673.648V748.571ZM335.794 664.569V592.209L382.322 594.801V669.739L335.794 664.569ZM331.898 664.14L288.822 659.357V589.603L331.898 591.995V664.14ZM284.926 658.927L244.959 654.488V587.183L284.926 589.403V658.927ZM241.063 654.058L203.875 649.948V584.906L241.02 586.94L241.063 654.058ZM200.021 649.504L165.369 645.652V582.744L199.978 584.663L200.021 649.504ZM161.515 645.208L129.227 641.628V580.739L161.515 582.529V645.208ZM125.33 641.199L95.1615 637.848V578.849L125.33 580.524V641.199ZM91.2651 637.418L63.0304 634.296L63.0304 577.016L91.2794 578.591L91.2651 637.418ZM3.8821 631.69L28.7075 634.44L28.7075 689.715L3.8821 685.577L3.8821 631.69ZM3.8821 689.543L28.7075 693.682L28.7075 748.915L3.8821 743.402L3.8821 689.543ZM3.89642 747.325L28.7218 752.839L28.7218 808.114L3.89642 801.226L3.89642 747.325ZM3.89642 859.022L3.89642 805.25L28.7218 812.138L28.7218 867.314L3.89642 859.022ZM32.6182 868.588L32.6182 813.198L59.091 820.544L59.091 877.395L32.6182 868.588ZM63.0304 878.713L63.0304 821.661L91.2794 829.494V888.121L63.0304 878.713ZM95.1186 889.41V830.568L125.287 838.974V899.462L95.1186 889.41ZM129.184 900.766V840.02L161.472 848.998V911.506L129.184 900.766ZM165.369 912.809V850.072L199.978 859.667V924.337L165.369 912.809ZM203.875 925.697V860.827L241.02 871.137V937.998L203.875 925.697ZM244.959 939.301V872.14L284.926 883.238V952.604L244.959 939.301ZM288.779 953.893V884.312L331.855 896.255V968.242L288.779 953.893ZM335.751 969.545V897.343L382.279 910.231V985.04L335.751 969.545ZM386.176 986.328V911.334L436.543 925.31V1003.1L386.176 986.328ZM495.118 1022.6L440.439 1004.4V926.327L495.118 941.564V1022.6ZM495.118 937.525L440.439 922.36V844.287L495.118 856.43V937.525ZM495.118 852.449L440.439 840.306V762.204L495.118 771.297V852.449ZM495.118 767.359L440.439 758.251V680.106L495.118 686.178V767.359ZM495.118 601.059V682.255L440.439 676.197V598.023L495.118 601.059ZM436.543 675.725L386.176 670.14V594.988L436.543 597.78V675.725ZM495.118 515.912L495.118 597.164L440.439 594.1L440.439 515.912H495.118ZM436.543 515.912L436.543 593.914L386.176 591.121L386.176 515.94L436.543 515.912ZM382.279 515.912L382.279 590.906L335.751 588.372L335.751 515.998L382.279 515.912ZM331.855 515.912L331.855 588.1L288.779 585.708L288.779 515.94L331.855 515.912ZM284.883 515.912L284.883 585.508L244.916 583.288V515.983L284.883 515.912ZM241.02 515.912V583.059L203.875 580.997V515.94L241.02 515.912ZM199.978 515.912V580.782L165.369 578.863V515.94L199.978 515.912ZM161.472 515.912V578.648L129.184 576.916V515.998L161.472 515.912ZM125.287 515.912V576.643L95.1186 574.968V515.94L125.287 515.912ZM91.2221 515.912V574.753L63.0304 573.178V515.897L91.2221 515.912ZM59.091 515.912V572.963L32.6182 571.531V515.969L59.091 515.912ZM28.7218 515.912L28.7218 571.273L3.89642 569.841L3.89642 515.883L28.7218 515.912ZM495.118 512.031H440.439V433.843L495.118 430.85V512.031ZM386.176 432.955V357.817L436.543 352.233V430.191L386.176 432.955ZM495.118 426.912L440.439 429.948V351.789L495.118 345.717V426.912ZM495.118 341.793L440.439 347.865V269.749L495.118 260.641V341.793ZM495.118 256.674L440.439 265.782V187.694L495.118 175.565V256.674ZM495.118 171.541L440.439 183.685V105.625L495.118 90.446V171.541ZM440.439 101.573V23.571L495.118 5.37012V86.4364L440.439 101.573Z" fill="rgba(255,255,255,0.35)"/>
</svg>
