<svg width="315" height="506" viewBox="0 0 315 506" fill="none" xmlns="http://www.w3.org/2000/svg">
<path d="M314.159 81.5667L315 81.7852V424.236L1.60962 505.584L0 506L0 0L314.159 81.5667ZM39.427 12.2576L39.427 50.5457L71.2218 57.4252V20.5115L39.427 12.2576ZM162.853 147.175L186.302 150.22V118.234L162.853 114.174V147.175ZM160.367 113.751L135.137 109.381V143.581L160.367 146.858V113.751ZM188.761 150.538L210.609 153.357V122.421L188.761 118.643V150.538ZM213.069 153.695L233.451 156.339V126.396L213.069 122.872V153.695ZM235.911 156.663L254.955 159.13V130.118L235.911 126.784V156.663ZM257.415 159.482L275.211 161.766V133.628L257.379 130.541L257.415 159.482ZM257.415 161.421V190.32L275.211 191.864V163.704L257.415 161.421ZM254.955 161.103L235.911 158.629V188.459L254.955 190.109V161.103ZM233.451 158.284L213.069 155.634L213.069 186.479L233.451 188.248V158.284ZM210.609 155.317L188.761 152.497L188.761 184.378L210.609 186.267L210.609 155.317ZM186.302 152.159L162.853 149.114V182.137L186.302 184.167V152.159ZM160.367 148.797L135.137 145.526V179.74L160.367 181.925V148.797ZM132.677 145.202L105.485 141.677V177.174L132.677 179.529V145.202ZM132.677 143.263V108.958L105.512 104.228V139.732L132.677 143.263ZM103.026 103.791L73.6543 98.709V135.602L103.026 139.415V103.791ZM103.026 101.832V66.2642L73.6543 59.9204V96.7777L103.026 101.832ZM105.485 102.254L132.677 106.963V72.6784L105.485 66.7928V102.254ZM135.137 107.386L160.367 111.756V78.6697L135.137 73.2141V107.386ZM162.826 112.179L186.274 116.239V84.2805L162.826 79.2054V112.179ZM188.734 116.662L210.582 120.447V89.5387L188.734 84.8091V116.662ZM213.041 120.891L233.424 124.415V94.4939L213.069 90.1308L213.041 120.891ZM235.884 124.845L254.955 128.158V99.1672L235.911 95.0648L235.884 124.845ZM257.388 128.567L275.211 131.668V103.523L257.379 99.6606L257.388 128.567ZM277.671 132.091L294.382 134.981V107.703L277.671 104.087V132.091ZM277.671 134.058V162.083L294.382 164.254V136.948L277.671 134.058ZM277.671 164.029V192.075L294.382 193.52V166.193L277.671 164.029ZM257.388 192.223V221.186L275.211 221.94V193.746L257.388 192.223ZM254.928 192.012L235.884 190.362V220.249L254.955 221.073L254.928 192.012ZM233.424 190.151L213.041 188.389V219.262L233.424 220.143V190.151ZM210.582 188.177L188.734 186.281V218.211L210.609 219.121L210.582 188.177ZM186.274 186.063L162.826 184.033V217.091L186.274 218.106V186.063ZM160.367 183.878L135.137 181.693V215.892L160.367 217.006V183.878ZM132.677 181.481L105.485 179.127V214.61L132.677 215.787V181.481ZM103.026 178.915L73.6543 176.371V213.235L103.026 214.504V178.915ZM103.026 176.984V141.381L73.6543 137.568V174.418L103.026 176.984ZM71.1947 137.251L39.3999 133.12V171.451L71.1947 174.207V137.251ZM71.1947 135.313V98.3425L39.3999 92.8445V131.154L71.1947 135.313ZM71.1947 96.383V59.4411L39.3999 52.5616V90.8357L71.1947 96.383ZM73.6543 21.1811V57.9538L103.026 64.2976V28.8077L73.6543 21.1811ZM105.485 29.4421V64.8403L132.677 70.7259V36.4767L105.485 29.4421ZM135.137 37.1392V71.2616L160.367 76.7384V43.6874L135.137 37.1392ZM162.853 44.3147V77.2459L186.302 82.3209V50.3907L162.853 44.3147ZM188.761 51.0462V82.8566L210.609 87.5792V56.6992L188.761 51.0462ZM213.069 57.3899V88.1149L233.451 92.5274V62.6412L213.069 57.3899ZM235.911 63.3178V93.056L254.955 97.1794V68.2166L235.911 63.3178ZM257.415 68.9004V97.7081L275.211 101.564V73.482L257.415 68.9004ZM277.698 74.1727V102.113L294.409 105.729V78.4724L277.698 74.1727ZM312.54 83.1668L296.869 79.0997V106.244L312.54 109.634V83.1668ZM312.54 111.622L296.869 108.232V135.411L312.54 138.125V111.622ZM312.54 140.084L296.869 137.357V164.571L312.54 166.608V140.084ZM312.54 168.547L296.869 166.517V193.746L312.54 195.092V168.547ZM277.698 193.999V222.06L294.409 222.765V195.423L277.698 193.999ZM312.54 197.016L296.869 195.663V222.892L312.54 223.597V197.016ZM312.54 252.045V225.465L296.869 224.76V252.045H312.54ZM294.409 252.045V224.703L277.698 223.998V252.045H294.409ZM275.247 252.045V223.85L257.415 223.082V252.045H275.247ZM254.955 252.045V222.99L235.911 222.173V252.045H254.955ZM233.451 252.045V222.06L213.069 221.179V252.045H233.451ZM210.609 252.045V221.073L188.761 220.129V252.045H210.609ZM186.302 252.045V220.023L162.853 219.008V252.045H186.302ZM160.394 252.045V218.916L135.164 217.824V252.045H160.394ZM132.704 252.045V217.711L105.512 216.534V252.045H132.704ZM103.053 252.045V216.421L73.6815 215.152V252.045L103.053 252.045ZM71.2218 252.045V215.047L39.427 213.637V252.045H71.2218ZM312.54 308.984V282.432L296.869 283.136V310.344L312.54 308.984ZM294.409 283.221L277.698 283.926V312.001L294.409 310.591V283.221ZM105.512 401.751L132.704 397.042V362.737L105.512 366.261V401.751ZM103.053 366.585L73.6815 370.398V407.256L103.053 402.174V366.585ZM254.973 346.849L235.929 349.323V379.181L254.955 375.882L254.973 346.849ZM257.415 375.459L275.211 372.372V344.234L257.379 346.553L257.415 375.459ZM233.451 349.661L213.069 352.305V383.135L233.451 379.611V349.661ZM210.609 352.629L188.761 355.448V387.336L210.609 383.558V352.629ZM186.302 355.78L162.853 358.825V391.812L186.302 387.752V355.78ZM160.367 359.142L135.137 362.419V396.619L160.367 392.249V359.142ZM132.704 360.798V326.478L105.512 328.833V364.323L132.704 360.798ZM135.164 360.481L160.367 357.203V324.075L135.164 326.26V360.481ZM162.853 356.886L186.302 353.841V321.84L162.853 323.87V356.886ZM188.761 353.524L210.609 350.705V319.754L188.761 321.643V353.524ZM213.069 350.366L233.451 347.716V317.759L213.069 319.521V350.366ZM235.911 347.406L254.955 344.932V315.898L235.911 317.541V347.406ZM257.415 344.586L275.211 342.296V314.143L257.415 315.687V344.586ZM277.698 341.957L294.409 339.786V312.459L277.698 313.925V341.957ZM277.698 343.896V371.942L294.409 369.052V341.767L277.698 343.896ZM277.698 373.888V401.913L294.409 398.297V371.019L277.698 373.888ZM275.211 374.332L257.379 377.419V406.318L275.211 402.449V374.332ZM254.919 377.856L235.875 381.155V410.97L254.919 406.847V377.856ZM233.415 381.585L213.032 385.109V415.911L233.415 411.499V381.585ZM210.573 385.532L188.725 389.317V421.156L210.573 416.433V385.532ZM186.265 389.761L162.817 393.821V426.766L186.265 421.691V389.761ZM160.367 394.216L135.137 398.579V432.751L160.367 427.295V394.216ZM132.677 399.009L105.485 403.71V439.172L132.677 433.286V399.009ZM103.026 404.14L73.6543 409.222V446.087L103.026 439.743V404.14ZM71.1947 409.645L39.3999 415.15V453.467L71.1947 446.587V409.645ZM71.1947 407.686V370.723L39.3999 374.846V413.191L71.1947 407.686ZM71.1947 368.777V331.793L39.3999 334.549V372.908L71.1947 368.777ZM73.6543 368.46L103.026 364.647V329.044L73.6543 331.582V368.46ZM103.026 327.113V291.496L73.6543 292.772V329.657L103.026 327.113ZM105.485 326.901L132.677 324.547V290.213L105.485 291.39V326.901ZM135.137 324.336L160.367 322.151V289.022L135.137 290.115V324.336ZM162.826 321.939L186.302 319.916V287.901L162.853 288.902L162.826 321.939ZM188.734 319.698L210.609 317.802V286.837L188.761 287.781L188.734 319.698ZM213.041 317.583L233.424 315.821V285.85L213.041 286.731V317.583ZM235.884 315.609L254.928 313.96V284.92L235.884 285.744V315.609ZM257.388 313.749L275.211 312.212V284.018L257.379 284.793L257.388 313.749ZM312.549 310.929L296.878 312.283V339.49L312.549 337.453V310.929ZM312.549 339.406L296.878 341.443V368.629L312.549 365.916V339.406ZM312.54 367.847L296.869 370.561V397.768L312.54 394.378V367.847ZM312.54 422.826V396.359L296.869 399.749V426.907L312.54 422.826ZM294.409 427.535V400.271L277.698 403.886V431.87L294.409 427.535ZM275.211 432.518V404.436L257.379 408.292V437.149L275.211 432.518ZM254.955 437.783V408.821L235.911 412.958V442.731L254.955 437.783ZM233.451 443.373V413.473L213.069 417.892V448.659L233.451 443.373ZM210.609 449.301V418.421L188.761 423.143V454.975L210.609 449.301ZM186.302 455.645V423.714L162.853 428.789V461.699L186.302 455.645ZM160.367 462.341V429.283L135.137 434.745V468.889L160.367 462.341ZM132.704 469.523V435.274L105.512 441.153V476.586L132.704 469.523ZM103.053 477.227V441.688L73.6815 448.032V484.854L103.053 477.227ZM71.2218 485.488V448.575L39.427 455.454V493.742L71.2218 485.488ZM2.45059 503.343L36.9673 494.384V455.955L2.45059 463.454V503.343ZM2.45059 461.467L36.9673 454.002V415.573L2.45059 421.55V461.467ZM2.45059 419.591L36.9673 413.614V375.17L2.45059 379.646V419.591ZM2.45059 377.708L36.9673 373.225V334.761L2.45059 337.749V377.708ZM2.45059 295.852V335.818L36.9673 332.836V294.358L2.45059 295.852ZM39.427 332.604L71.2218 329.855V292.864L39.427 294.238V332.604ZM2.45059 253.941V293.935L36.9673 292.427V253.941H2.45059ZM39.427 253.941V292.335L71.2218 290.96L71.2218 253.955L39.427 253.941ZM73.6815 253.941L73.6815 290.855L103.053 289.607L103.053 253.983L73.6815 253.941ZM105.512 253.941L105.512 289.473L132.704 288.296L132.704 253.955L105.512 253.941ZM135.164 253.941L135.164 288.197L160.394 287.105L160.394 253.976L135.164 253.941ZM162.853 253.941L162.853 286.992L186.302 285.977L186.302 253.955L162.853 253.941ZM188.761 253.941V285.871L210.609 284.927V253.955L188.761 253.941ZM213.069 253.941V284.821L233.451 283.968V253.983L213.069 253.941ZM235.911 253.941V283.834L254.955 283.01V253.955L235.911 253.941ZM257.415 253.941V282.904L275.211 282.128V253.934L257.415 253.941ZM277.698 253.941V282.023L294.409 281.318V253.969L277.698 253.941ZM296.869 253.941V281.191L312.54 280.486V253.927L296.869 253.941ZM2.45059 252.031H36.9673V213.545L2.45059 212.072V252.031ZM71.2218 213.108V176.124L39.427 173.375V211.748L71.2218 213.108ZM2.45059 210.134L36.9673 211.628V173.157L2.45059 170.168V210.134ZM2.45059 168.237L36.9673 171.225V132.775L2.45059 128.292V168.237ZM2.45059 126.34L36.9673 130.823V92.3864L2.45059 86.4162V126.34ZM2.45059 84.4355L36.9673 90.4128V51.9907L2.45059 44.5191V84.4355ZM36.9673 49.9959L36.9673 11.6021L2.45059 2.64322L2.45059 42.5455L36.9673 49.9959Z" fill="white"/>
</svg>
