<svg width="315" height="506" viewBox="0 0 315 506" fill="none" xmlns="http://www.w3.org/2000/svg">
<path d="M0.840989 81.5667L0 81.7852L0 424.236L313.39 505.584L315 506L315 0L0.840989 81.5667ZM275.573 12.2576L275.573 50.5457L243.778 57.4252V20.5115L275.573 12.2576ZM152.147 147.175L128.698 150.22V118.234L152.147 114.174V147.175ZM154.633 113.751L179.863 109.381V143.581L154.633 146.858V113.751ZM126.239 150.538L104.391 153.357V122.421L126.239 118.643V150.538ZM101.931 153.695L81.5488 156.339V126.396L101.931 122.872V153.695ZM79.0891 156.663L60.0448 159.13V130.118L79.0891 126.784V156.663ZM57.5851 159.482L39.7887 161.766V133.628L57.6213 130.541L57.5851 159.482ZM57.5851 161.421V190.32L39.7887 191.864V163.704L57.5851 161.421ZM60.0448 161.103L79.0891 158.629V188.459L60.0448 190.109V161.103ZM81.5488 158.284L101.931 155.634L101.931 186.479L81.5488 188.248V158.284ZM104.391 155.317L126.239 152.497L126.239 184.378L104.391 186.267L104.391 155.317ZM128.698 152.159L152.147 149.114V182.137L128.698 184.167V152.159ZM154.633 148.797L179.863 145.526V179.74L154.633 181.925V148.797ZM182.323 145.202L209.515 141.677V177.174L182.323 179.529V145.202ZM182.323 143.263V108.958L209.488 104.228V139.732L182.323 143.263ZM211.974 103.791L241.346 98.709V135.602L211.974 139.415V103.791ZM211.974 101.832V66.2642L241.346 59.9204V96.7777L211.974 101.832ZM209.515 102.254L182.323 106.963V72.6784L209.515 66.7928V102.254ZM179.863 107.386L154.633 111.756V78.6697L179.863 73.2141V107.386ZM152.174 112.179L128.726 116.239V84.2805L152.174 79.2054V112.179ZM126.266 116.662L104.418 120.447V89.5387L126.266 84.8091V116.662ZM101.959 120.891L81.5759 124.415V94.4939L101.931 90.1308L101.959 120.891ZM79.1162 124.845L60.0448 128.158L60.0448 99.1672L79.0891 95.0648L79.1162 124.845ZM57.6122 128.567L39.7887 131.668V103.523L57.6213 99.6606L57.6122 128.567ZM37.329 132.091L20.6178 134.981L20.6178 107.703L37.329 104.087V132.091ZM37.329 134.058V162.083L20.6178 164.254V136.948L37.329 134.058ZM37.329 164.029V192.075L20.6178 193.52L20.6178 166.193L37.329 164.029ZM57.6122 192.223L57.6122 221.186L39.7887 221.94L39.7887 193.746L57.6122 192.223ZM60.0719 192.012L79.1162 190.362V220.249L60.0448 221.073L60.0719 192.012ZM81.5759 190.151L101.959 188.389V219.262L81.5759 220.143V190.151ZM104.418 188.177L126.266 186.281V218.211L104.391 219.121L104.418 188.177ZM128.726 186.063L152.174 184.033V217.091L128.726 218.106V186.063ZM154.633 183.878L179.863 181.693V215.892L154.633 217.006V183.878ZM182.323 181.481L209.515 179.127V214.61L182.323 215.787V181.481ZM211.974 178.915L241.346 176.371V213.235L211.974 214.504V178.915ZM211.974 176.984V141.381L241.346 137.568V174.418L211.974 176.984ZM243.805 137.251L275.6 133.12V171.451L243.805 174.207V137.251ZM243.805 135.313V98.3425L275.6 92.8445V131.154L243.805 135.313ZM243.805 96.383V59.4411L275.6 52.5616V90.8357L243.805 96.383ZM241.346 21.1811V57.9538L211.974 64.2976V28.8077L241.346 21.1811ZM209.515 29.4421V64.8403L182.323 70.7259V36.4767L209.515 29.4421ZM179.863 37.1392V71.2616L154.633 76.7384V43.6874L179.863 37.1392ZM152.147 44.3147V77.2459L128.698 82.3209V50.3907L152.147 44.3147ZM126.239 51.0462V82.8566L104.391 87.5792V56.6992L126.239 51.0462ZM101.931 57.3899V88.1149L81.5488 92.5274V62.6412L101.931 57.3899ZM79.0891 63.3178V93.056L60.0448 97.1794V68.2166L79.0891 63.3178ZM57.5851 68.9004V97.7081L39.7887 101.564L39.7887 73.482L57.5851 68.9004ZM37.3019 74.1727L37.3019 102.113L20.5907 105.729V78.4724L37.3019 74.1727ZM2.45967 83.1668L18.131 79.0997V106.244L2.45967 109.634L2.45967 83.1668ZM2.45967 111.622L18.131 108.232L18.131 135.411L2.45967 138.125L2.45967 111.622ZM2.45967 140.084L18.131 137.357V164.571L2.45967 166.608L2.45967 140.084ZM2.45967 168.547L18.131 166.517L18.131 193.746L2.45967 195.092L2.45967 168.547ZM37.3019 193.999L37.3019 222.06L20.5907 222.765V195.423L37.3019 193.999ZM2.45967 197.016L18.131 195.663V222.892L2.45967 223.597L2.45967 197.016ZM2.45967 252.045L2.45967 225.465L18.131 224.76L18.131 252.045H2.45967ZM20.5907 252.045L20.5907 224.703L37.3019 223.998V252.045H20.5907ZM39.7525 252.045V223.85L57.5851 223.082V252.045H39.7525ZM60.0448 252.045V222.99L79.0891 222.173V252.045H60.0448ZM81.5488 252.045V222.06L101.931 221.179V252.045H81.5488ZM104.391 252.045V221.073L126.239 220.129V252.045H104.391ZM128.698 252.045V220.023L152.147 219.008V252.045H128.698ZM154.606 252.045V218.916L179.836 217.824V252.045H154.606ZM182.296 252.045V217.711L209.488 216.534V252.045H182.296ZM211.947 252.045V216.421L241.319 215.152V252.045L211.947 252.045ZM243.778 252.045V215.047L275.573 213.637V252.045H243.778ZM2.45967 308.984L2.45967 282.432L18.131 283.136L18.131 310.344L2.45967 308.984ZM20.5907 283.221L37.3019 283.926V312.001L20.5907 310.591L20.5907 283.221ZM209.488 401.751L182.296 397.042V362.737L209.488 366.261V401.751ZM211.947 366.585L241.319 370.398V407.256L211.947 402.174V366.585ZM60.0267 346.849L79.071 349.323V379.181L60.0448 375.882L60.0267 346.849ZM57.5851 375.459L39.7887 372.372V344.234L57.6213 346.553L57.5851 375.459ZM81.5488 349.661L101.931 352.305V383.135L81.5488 379.611V349.661ZM104.391 352.629L126.239 355.448V387.336L104.391 383.558V352.629ZM128.698 355.78L152.147 358.825V391.812L128.698 387.752V355.78ZM154.633 359.142L179.863 362.419V396.619L154.633 392.249V359.142ZM182.296 360.798V326.478L209.488 328.833V364.323L182.296 360.798ZM179.836 360.481L154.633 357.203V324.075L179.836 326.26V360.481ZM152.147 356.886L128.698 353.841V321.84L152.147 323.87V356.886ZM126.239 353.524L104.391 350.705V319.754L126.239 321.643V353.524ZM101.931 350.366L81.5488 347.716V317.759L101.931 319.521V350.366ZM79.0891 347.406L60.0448 344.932L60.0448 315.898L79.0891 317.541V347.406ZM57.5851 344.586L39.7887 342.296L39.7887 314.143L57.5851 315.687L57.5851 344.586ZM37.3019 341.957L20.5907 339.786V312.459L37.3019 313.925L37.3019 341.957ZM37.3019 343.896V371.942L20.5907 369.052L20.5907 341.767L37.3019 343.896ZM37.3019 373.888V401.913L20.5907 398.297V371.019L37.3019 373.888ZM39.7887 374.332L57.6213 377.419V406.318L39.7887 402.449V374.332ZM60.081 377.856L79.1253 381.155L79.1253 410.97L60.081 406.847V377.856ZM81.585 381.585L101.968 385.109L101.968 415.911L81.585 411.499L81.585 381.585ZM104.427 385.532L126.275 389.317L126.275 421.156L104.427 416.433L104.427 385.532ZM128.735 389.761L152.183 393.821V426.766L128.735 421.691V389.761ZM154.633 394.216L179.863 398.579V432.751L154.633 427.295V394.216ZM182.323 399.009L209.515 403.71V439.172L182.323 433.286V399.009ZM211.974 404.14L241.346 409.222V446.087L211.974 439.743V404.14ZM243.805 409.645L275.6 415.15V453.467L243.805 446.587V409.645ZM243.805 407.686V370.723L275.6 374.846V413.191L243.805 407.686ZM243.805 368.777V331.793L275.6 334.549V372.908L243.805 368.777ZM241.346 368.46L211.974 364.647V329.044L241.346 331.582V368.46ZM211.974 327.113V291.496L241.346 292.772V329.657L211.974 327.113ZM209.515 326.901L182.323 324.547V290.213L209.515 291.39V326.901ZM179.863 324.336L154.633 322.151V289.022L179.863 290.115V324.336ZM152.174 321.939L128.698 319.916V287.901L152.147 288.902L152.174 321.939ZM126.266 319.698L104.391 317.802V286.837L126.239 287.781L126.266 319.698ZM101.959 317.583L81.5759 315.821V285.85L101.959 286.731V317.583ZM79.1162 315.609L60.0719 313.96V284.92L79.1162 285.744V315.609ZM57.6122 313.749L39.7887 312.212V284.018L57.6213 284.793L57.6122 313.749ZM2.45062 310.929L18.122 312.283V339.49L2.45062 337.453L2.45062 310.929ZM2.45062 339.406L18.122 341.443L18.122 368.629L2.45062 365.916L2.45062 339.406ZM2.45967 367.847L18.131 370.561V397.768L2.45967 394.378L2.45967 367.847ZM2.45967 422.826L2.45967 396.359L18.131 399.749L18.131 426.907L2.45967 422.826ZM20.5907 427.535L20.5907 400.271L37.3019 403.886V431.87L20.5907 427.535ZM39.7887 432.518V404.436L57.6213 408.292V437.149L39.7887 432.518ZM60.0448 437.783V408.821L79.0891 412.958V442.731L60.0448 437.783ZM81.5488 443.373V413.473L101.931 417.892V448.659L81.5488 443.373ZM104.391 449.301V418.421L126.239 423.143V454.975L104.391 449.301ZM128.698 455.645V423.714L152.147 428.789V461.699L128.698 455.645ZM154.633 462.341V429.283L179.863 434.745V468.889L154.633 462.341ZM182.296 469.523V435.274L209.488 441.153V476.586L182.296 469.523ZM211.947 477.227V441.688L241.319 448.032V484.854L211.947 477.227ZM243.778 485.488V448.575L275.573 455.454V493.742L243.778 485.488ZM312.549 503.343L278.033 494.384V455.955L312.549 463.454V503.343ZM312.549 461.467L278.033 454.002V415.573L312.549 421.55V461.467ZM312.549 419.591L278.033 413.614V375.17L312.549 379.646V419.591ZM312.549 377.708L278.033 373.225V334.761L312.549 337.749V377.708ZM312.549 295.852V335.818L278.033 332.836V294.358L312.549 295.852ZM275.573 332.604L243.778 329.855V292.864L275.573 294.238V332.604ZM312.549 253.941V293.935L278.033 292.427V253.941H312.549ZM275.573 253.941V292.335L243.778 290.96L243.778 253.955L275.573 253.941ZM241.319 253.941L241.319 290.855L211.947 289.607L211.947 253.983L241.319 253.941ZM209.488 253.941L209.488 289.473L182.296 288.296L182.296 253.955L209.488 253.941ZM179.836 253.941L179.836 288.197L154.606 287.105L154.606 253.976L179.836 253.941ZM152.147 253.941L152.147 286.992L128.698 285.977L128.698 253.955L152.147 253.941ZM126.239 253.941V285.871L104.391 284.927V253.955L126.239 253.941ZM101.931 253.941V284.821L81.5488 283.968V253.983L101.931 253.941ZM79.0891 253.941V283.834L60.0448 283.01V253.955L79.0891 253.941ZM57.5851 253.941V282.904L39.7887 282.128V253.934L57.5851 253.941ZM37.3019 253.941V282.023L20.5907 281.318V253.969L37.3019 253.941ZM18.131 253.941V281.191L2.45967 280.486L2.45967 253.927L18.131 253.941ZM312.549 252.031H278.033V213.545L312.549 212.072V252.031ZM243.778 213.108V176.124L275.573 173.375V211.748L243.778 213.108ZM312.549 210.134L278.033 211.628V173.157L312.549 170.168V210.134ZM312.549 168.237L278.033 171.225V132.775L312.549 128.292V168.237ZM312.549 126.34L278.033 130.823V92.3864L312.549 86.4162V126.34ZM312.549 84.4355L278.033 90.4128V51.9907L312.549 44.5191V84.4355ZM278.033 49.9959L278.033 11.6021L312.549 2.64322L312.549 42.5455L278.033 49.9959Z" fill="white"/>
</svg>
