<svg width="22" height="18" viewBox="0 0 22 18" fill="none" xmlns="http://www.w3.org/2000/svg">
<path fill-rule="evenodd" clip-rule="evenodd" d="M15.659 0.209473C18.989 0.209473 21.5 2.59237 21.5 5.75232V11.7758C21.5 13.393 20.848 14.8542 19.663 15.8908C18.6 16.8196 17.221 17.3116 15.675 17.3116H5.822C4.279 17.3116 2.901 16.8205 1.837 15.8908C0.652 14.8542 0 13.393 0 11.7758V5.75232C0 2.59237 2.511 0.209473 5.841 0.209473H15.659ZM15.659 1.52502H5.841C3.326 1.52502 1.5 3.30277 1.5 5.75232V11.7758C1.5 13.0413 1.996 14.1718 2.896 14.9585C3.672 15.6382 4.685 15.9961 5.825 15.9961H15.659C15.661 15.9943 15.669 15.9961 15.675 15.9961C16.816 15.9961 17.828 15.6382 18.604 14.9585C19.505 14.1718 20 13.0413 20 11.7758V5.75232C20 3.30277 18.174 1.52502 15.659 1.52502ZM17.235 5.58463C17.496 5.86616 17.447 6.28012 17.126 6.5099L12.682 9.67774C12.12 10.0689 11.448 10.2645 10.777 10.2645C10.108 10.2645 9.441 10.0707 8.883 9.68301L4.398 6.51165C4.075 6.28363 4.025 5.86879 4.284 5.58638C4.545 5.30486 5.017 5.26013 5.339 5.48728L9.82 8.65512C10.383 9.04628 11.176 9.04628 11.743 8.65162L16.179 5.48903C16.501 5.25838 16.973 5.30223 17.235 5.58463Z" fill="white"/>
</svg>
