<svg width="17" height="18" viewBox="0 0 17 18" fill="none" xmlns="http://www.w3.org/2000/svg">
<path fill-rule="evenodd" clip-rule="evenodd" d="M8.25 0.209473C12.799 0.209473 16.5 3.47993 16.5 7.50025C16.5 12.4423 10.044 17.3116 8.25 17.3116C6.456 17.3116 0 12.4423 0 7.50025C0 3.47993 3.701 0.209473 8.25 0.209473ZM8.25 1.52502C4.528 1.52502 1.5 4.20611 1.5 7.50025C1.5 11.6916 7.124 15.7751 8.25 15.9926C9.376 15.7742 15 11.6907 15 7.50025C15 4.20611 11.972 1.52502 8.25 1.52502ZM8.251 4.59464C10.043 4.59464 11.501 5.87335 11.501 7.44587C11.501 9.01751 10.043 10.2953 8.251 10.2953C6.459 10.2953 5.001 9.01751 5.001 7.44587C5.001 5.87335 6.459 4.59464 8.251 4.59464ZM8.251 5.91019C7.286 5.91019 6.501 6.59866 6.501 7.44587C6.501 8.29221 7.286 8.9798 8.251 8.9798C9.216 8.9798 10.001 8.29221 10.001 7.44587C10.001 6.59866 9.216 5.91019 8.251 5.91019Z" fill="white"/>
</svg>
